<svg xmlns="http://www.w3.org/2000/svg" viewBox="0 0 128 128" role="img" aria-labelledby="title">
  <title id="title">AccordLens</title>
  <defs>
    <linearGradient id="face" x1="0" y1="0" x2="1" y2="1">
      <stop stop-color="#e9ffff"/>
      <stop offset=".46" stop-color="#8de5df"/>
      <stop offset="1" stop-color="#277f88"/>
    </linearGradient>
    <linearGradient id="edge" x1="0" y1="0" x2="1" y2="1">
      <stop stop-color="#316c76"/>
      <stop offset="1" stop-color="#14363f"/>
    </linearGradient>
    <linearGradient id="glint" x1="0" y1="0" x2="1" y2="1">
      <stop stop-color="#ffe2c9"/>
      <stop offset="1" stop-color="#d38d72"/>
    </linearGradient>
    <filter id="shadow" x="-30%" y="-30%" width="160%" height="170%">
      <feGaussianBlur stdDeviation="5"/>
    </filter>
  </defs>
  <path d="M27 102 52 116 113 84 88 70Z" fill="#001b24" opacity=".42" filter="url(#shadow)"/>
  <path d="M22 48 81 17 106 31 106 85 47 116 22 102Z" fill="url(#edge)"/>
  <path d="M22 48 81 17 106 31 47 62Z" fill="#6aa8a8"/>
  <path d="M47 62 106 31 106 85 47 116Z" fill="url(#face)"/>
  <path d="M22 48 47 62 47 116 22 102Z" fill="#1d4a55"/>
  <path d="M60 72a22 22 0 1 0 44-23 22 22 0 0 0-44 23Z" fill="#103b46"/>
  <path d="M64 70a17 17 0 1 0 34-18 17 17 0 0 0-34 18Z" fill="#092831" stroke="#d0ffff" stroke-width="3"/>
  <path d="M66 67a13 13 0 1 0 26-14 13 13 0 0 0-26 14Z" fill="url(#glint)" opacity=".76"/>
  <path d="M70 54 87 45" stroke="#fff6e5" stroke-linecap="round" stroke-width="3" opacity=".88"/>
  <path d="M51 107 100 81" stroke="#edffff" stroke-width="2" opacity=".68"/>
  <path d="M25 52 44 63" stroke="#c9ffff" stroke-width="2" opacity=".58"/>
</svg>
